<?xml version="1.0" standalone="no"?>
<!DOCTYPE svg PUBLIC "-//W3C//DTD SVG 20010904//EN"
 "http://www.w3.org/TR/2001/REC-SVG-20010904/DTD/svg10.dtd">
<svg version="1.0" xmlns="http://www.w3.org/2000/svg"
 width="234.000000pt" height="215.000000pt" viewBox="0 0 234.000000 215.000000"
 preserveAspectRatio="xMidYMid meet">

<g transform="translate(0.000000,215.000000) scale(0.100000,-0.100000)"
fill="#000000" stroke="none">
<path d="M714 2129 c-43 -12 -102 -75 -110 -116 -15 -81 11 -146 77 -191 48
-34 141 -28 192 11 72 54 86 171 29 238 -47 57 -118 79 -188 58z"/>
<path d="M695 1756 c-85 -37 -93 -88 -78 -461 6 -163 7 -169 32 -197 14 -15
118 -84 231 -154 113 -69 210 -130 215 -136 11 -11 -33 -53 -107 -98 l-46 -29
-35 58 c-50 81 -125 146 -215 189 -70 33 -86 37 -179 40 -109 4 -160 -7 -257
-56 -76 -38 -160 -128 -203 -217 -32 -68 -37 -88 -41 -175 -7 -151 27 -254
119 -354 275 -301 777 -152 839 249 6 39 9 88 5 110 l-6 40 68 45 c37 25 71
46 75 48 4 2 7 -97 5 -220 l-2 -223 26 -3 c36 -4 36 -3 99 338 l52 285 48 75
c27 41 61 101 76 133 16 31 31 57 34 57 3 0 27 -51 52 -112 l48 -113 -44 -45
c-54 -56 -86 -107 -115 -185 -31 -82 -32 -224 -2 -309 71 -201 252 -330 461
-329 131 1 238 43 332 131 102 95 148 206 148 353 0 197 -98 352 -278 437 -69
33 -87 37 -175 40 -72 3 -114 0 -158 -13 -34 -9 -62 -15 -64 -13 -2 2 -35 84
-75 183 -97 243 -96 242 -133 254 -18 6 -101 22 -186 37 l-153 28 -142 153
c-162 176 -192 194 -271 159z m294 -386 l88 -60 95 0 c52 0 122 -3 156 -6 l60
-7 -20 -70 c-18 -66 -89 -217 -123 -261 -14 -18 -18 -16 -82 39 -37 32 -114
97 -170 144 l-102 86 0 98 c-1 53 2 97 5 97 3 0 45 -27 93 -60z m-344 -539
c34 -15 78 -43 100 -62 37 -32 95 -113 95 -132 0 -15 -124 -65 -203 -81 -42
-9 -99 -16 -127 -16 -70 0 -90 -12 -90 -55 0 -46 29 -65 98 -65 72 0 191 26
281 60 l74 29 -7 -61 c-19 -189 -186 -337 -377 -338 -229 0 -420 233 -369 451
58 244 306 372 525 270z m1353 4 c176 -81 266 -261 218 -440 -18 -68 -37 -103
-89 -161 -219 -243 -623 -103 -654 226 -7 72 17 166 60 233 44 68 65 86 78 66
4 -8 31 -52 59 -99 53 -89 143 -206 173 -224 13 -8 24 -7 45 4 38 22 40 56 4
94 -47 50 -76 95 -131 200 -28 55 -48 103 -43 108 34 34 200 30 280 -7z"/>
<path d="M1658 1373 c-10 -2 -21 -16 -25 -31 -8 -32 51 -270 73 -292 19 -19
266 -22 285 -3 13 13 58 220 59 270 0 57 -22 63 -210 62 -91 -1 -173 -3 -182
-6z"/>
</g>
</svg>
